<?xml version="1.0" encoding="utf-8"?>
<!-- Generator: Adobe Illustrator 26.0.2, SVG Export Plug-In . SVG Version: 6.00 Build 0)  -->
<svg version="1.1" id="Слой_1" xmlns="http://www.w3.org/2000/svg" xmlns:xlink="http://www.w3.org/1999/xlink" x="0px" y="0px"
	 viewBox="0 0 595.28 841.89" style="enable-background:new 0 0 595.28 841.89;" xml:space="preserve">
<style type="text/css">
	.st0{fill-rule:evenodd;clip-rule:evenodd;}
</style>
<path class="st0" d="M255.69,336.15v98.66c0,2.59,1.1,5.67,1.94,7.5c0.3,0.64,0.51,0.96,0.86,1.53l0.93,1.46
	c0.64,0.93,1.41,1.8,2.18,2.59c3.17,3.23,8.52,5.84,13.11,5.84c4.41,0,6.68-0.4,10.49-2.25c1.56-0.76,2.9-1.82,4.22-2.93
	c0.68-0.57,1.16-1.16,1.74-1.84l1.58-2c0.38-0.56,1.19-1.68,1.24-2.34h0.24c0.27,1.18,1.96,3.36,2.76,4.28
	c1.12,1.29,2.32,2.44,3.73,3.43c2.81,1.95,6.92,3.66,10.51,3.66c2.41,0,4.12-0.08,6.47-0.67c1.26-0.32,2.49-0.81,3.55-1.34
	c1.11-0.55,2.03-1.16,3.04-1.85c1.43-0.98,2.71-2.26,3.78-3.62c1.91-2.44,3.38-5.19,4.05-8.26c1.2-5.5,0.17-10.97-2.66-15.66
	l-8.39-16.46c-0.42-0.85-0.77-1.55-1.19-2.39l-4.84-9.5c-0.39-0.78-0.75-1.5-1.15-2.31l-6.03-11.89c-0.43-0.86-0.8-1.49-1.23-2.36
	l-8.39-16.58c-2.54-4.96-0.9-12.48,2.97-16.34c1.19-1.19,2.5-2.27,4.03-3c4.12-1.97,9.18-2.12,13.32-0.04l2.2,1.38
	c0.41,0.31,0.59,0.5,0.97,0.82l1.71,1.75c0.83,0.99,1.52,2.12,2.06,3.32c0.65,1.47,1.31,3.75,1.31,5.87h3.92
	c0-2.55-0.58-5.21-1.66-7.43c-2.02-4.12-4.79-7.17-8.92-9.22c-4.63-2.3-11.34-2.44-16.02-0.08c-2.96,1.49-5.37,3.47-7.33,6.15
	c-0.31,0.43-0.6,0.92-0.88,1.39c-2.23,3.76-3.07,8.74-2.17,13.24c0.61,3.08,1.71,4.79,3.04,7.47c3.86,7.78,7.91,15.45,11.78,23.23
	l14.63,28.97c0.23,0.46,0.34,0.76,0.55,1.24c1.35,2.93,3.53,6.76,4.31,9.79c0.4,1.57,0.41,3.46,0.41,5.1
	c0,4.15-2.05,8.09-4.79,10.87c-1.32,1.34-2.94,2.42-4.65,3.22c-6.11,2.87-13.8,1.42-18.37-3.22c-0.37-0.38-0.52-0.54-0.85-0.95
	c-0.27-0.34-0.53-0.62-0.81-0.98c-0.27-0.33-0.5-0.7-0.73-1.06c-1.28-1.99-1.82-4.07-2.33-6.39c-0.41-1.87-0.31-3.14-0.31-5.08
	v-63.58c0-0.6-0.02-1.24-0.02-1.24s-0.34-0.63-0.45-0.81c-0.12-0.2-0.25-0.41-0.36-0.6c-0.87-1.53-1.66-3.37-2.02-5.15
	c-0.16-0.81-0.49-2.41-0.48-3.09l-0.12,75.17c0,4.01,0.08,5.09-1.44,8.84c-0.6,1.49-1.6,2.96-2.69,4.12
	c-3.43,3.66-7.39,5.47-12.64,5.47c-2.43,0-4.91-0.75-6.54-1.56c-1.77-0.88-3.33-1.97-4.73-3.38c-1.04-1.05-1.9-2.15-2.61-3.48
	c-0.74-1.39-1.31-2.87-1.67-4.42c-0.28-1.19-0.41-2.12-0.49-2.74c-0.14-1.12-0.18-2.05-0.21-2.86c-0.04-0.96-0.04-1.68-0.04-1.91
	c0-1.74,0-13.12,0.01-28.74v-63.34l0-1.33v-0.47l-0.43,0h-2.63h-0.38V336.15z M260.83,479.46c0.78,0,1.57,0,2.35,0
	c0.95-4.11,2.8-9.57,3.8-13.89c0.07-0.31,0.15-0.62,0.15-0.62c0.04-0.17,0.07-0.32,0.09-0.42c0.17,0.66,0.34,1.33,0.53,2.01
	c0.18,0.65,0.36,1.28,0.54,1.9l2.97,11.01h2.26l1.12-4.26c0.63-2.2,1.25-4.46,1.85-6.76c0.53-2.02,1.03-4.02,1.51-5.98
	c-0.74,0-1.48,0-2.22,0c-0.09,1.09-2.7,10.85-3.2,13.42c-0.08,0.32-0.15,0.64-0.23,0.96c-1.8-7.42-2.45-9.96-2.7-10.84
	c-0.01-0.05-0.49-1.73-0.5-1.77c-0.17-0.62-0.37-1.19-0.5-1.77h-2.74c-0.72,2.43-1.43,4.94-2.11,7.51
	c-0.61,2.29-1.17,4.53-1.69,6.73c-0.07,0-0.14,0-0.21,0c-0.09-0.58-0.19-1.17-0.31-1.79c-0.13-0.64-0.26-1.24-0.41-1.82l-1.62-6.99
	c-0.16-0.6-0.31-1.24-0.45-1.91c-0.13-0.6-0.23-1.18-0.33-1.74c-0.79,0-1.59,0.01-2.38,0.01c0.8,2.96,1.59,5.94,2.37,8.95
	C259.47,474.11,260.16,476.79,260.83,479.46z M323.37,477.43h-4.28V464.5h4.52c6.25,0,5.65,9.51,3.02,11.9
	c-0.3,0.27-0.52,0.39-0.88,0.55C325.09,477.24,324.31,477.43,323.37,477.43L323.37,477.43z M316.83,479.46c0,0,7.47,0.49,9.97-0.46
	c0.64-0.24,1.52-0.89,2.31-1.81c0,0,1.84-2.38,1.69-7.06c-0.02-0.62-0.11-1.22-0.11-1.22s-0.09-0.6-0.23-1.15
	c-0.8-3.19-3.02-5.31-6.73-5.31h-6.9V479.46z M300.17,471.44c0-2,0.25-3.87,1.29-5.17c2.08-2.62,6.41-2.75,8.61-0.25
	c2.06,2.33,2.07,7.42,0.06,9.81c-1.93,2.3-5.9,2.7-8.44-0.05C300.66,474.66,300.17,473.07,300.17,471.44L300.17,471.44z
	 M297.8,471.2c0,4.6,3.41,8.5,7.49,8.5c2.74,0,4.54-0.42,6.51-2.42c3.13-3.18,3.27-11.5-2.03-14.18c-3.67-1.86-8.62-0.93-10.82,3.04
	C298.17,467.54,297.8,469.45,297.8,471.2L297.8,471.2z M281.86,471.56c0-2.06,0.2-3.84,1.24-5.22c2.78-3.7,10.18-2.66,10.18,4.02
	c0,2.19-0.07,3.7-1.41,5.41C289.14,479.25,281.86,478.1,281.86,471.56L281.86,471.56z M279.48,471.08c0,4.77,3.4,8.62,7.49,8.62
	c2.71,0,4.82-0.5,6.57-2.49c3.27-3.71,2.9-11.57-2.01-14.08c-4.18-2.13-9.81-0.73-11.48,4.34
	C279.73,468.46,279.48,469.74,279.48,471.08L279.48,471.08z M308.38,493.95h1.43l0.02-8.86c0,0,0.61,1.71,0.77,2.2
	c0.32,0.97,2.19,6.66,2.19,6.66h1.43c0,0,2.23-6.36,2.62-7.56c0.14-0.44,0.48-1.3,0.48-1.3l0,8.86h1.43v-10.9h-2.02l-2.74,8.02
	c-0.19,0.49-0.42,1.23-0.42,1.23c-0.3-1.29-1.79-5.43-2.27-6.91c-0.26-0.78-0.76-2.35-0.76-2.35h-2.14V493.95z M298.27,483.41v10.18
	v0.39l8.09-0.03l0-1.32h-6.54v-3.71h6.55v-1.2h-6.55v-3.35h6.55v-1.32h-8.09C298.27,483.05,298.27,483.14,298.27,483.41
	L298.27,483.41z M279,485.69c0,2.04,1.11,2.55,3.08,3.13c0.7,0.21,1.65,0.36,2.35,0.63c2.51,0.98,1.31,3.42-1.26,3.42
	c-1.77,0-3.08-0.88-3.21-2.51c-1.19,0-1.51-0.2-1.29,0.8c0.12,0.56,0.47,1.29,0.84,1.69c2.21,2.4,7.71,1.48,7.71-1.89
	c0-4.41-6.78-2.42-6.78-5.27c0-2.04,4.93-2.32,5,0.48h1.43c0-1.58-0.94-2.69-2.4-3.09C282.02,482.41,279,483.28,279,485.69z
	 M258.9,485.69c0,2.04,1.11,2.55,3.08,3.13c1.25,0.37,3.7,0.57,3.7,2.14c0,2.18-3.38,2.35-4.83,1.27c-0.66-0.49-0.79-0.99-1-1.87
	h-1.31c0,5.25,8.56,4.77,8.56,0.6c0-4.46-6.78-2.4-6.78-5.27c0-2.03,5-2.33,5,0.48h1.43c0-1.16-0.51-2.04-1.18-2.52
	c-0.35-0.25-0.76-0.45-1.21-0.57C261.92,482.41,258.9,483.28,258.9,485.69L258.9,485.69z M292.19,353.27L292.19,353.27
	c0-1.44,0.81-3.97,1.27-5.32c0.28-0.8,0.66-1.54,1-2.23l1.19-2.15c0-2.34,0-4.69,0-7.03v-0.88h-0.46h-2.58h-0.42l0,0.84
	c0.01,0.25,0,0.62,0,1.09C292.19,342.82,292.18,348.04,292.19,353.27z M328.39,486.19 M328.7,485.74c-0.02-0.08-0.04-0.14-0.05-0.19
	l-0.08-0.25c-0.08-0.23-0.13-0.36-0.18-0.47c0,0-0.13-0.3-0.35-0.61c-0.33-0.46-1.02-0.88-1.46-1.05c-1.49-0.59-4.96-0.29-5.61,1.78
	c-1.33,4.18,5.03,3.75,6.29,5.08c0.73,0.77,0.49,2.84-2.35,2.84c-1.7,0-3.06-0.87-3.09-2.51h-1.43c0,4.44,6.83,5.03,8.33,1.8
	c0.78-1.67-0.04-3.23-1.39-3.88c-1.34-0.65-6.54-0.98-4.83-3.33c0.84-1.16,4.57-1.38,4.79,1.24c0.1,0,0.23-0.01,0.39,0h1.07
	C328.75,486.19,328.75,486.02,328.7,485.74z M272.11,489.52v4.43h1.43v-4.43c0-0.22,0.81-1.35,1-1.63c0.73-1.11,2.85-4,3.28-4.84
	h-1.66l-2.45,3.76c-0.25,0.42-0.88,1.27-0.88,1.27s-1.86-3.12-2.31-3.78c-0.3-0.45-0.79-1.25-0.79-1.25h-1.78l2.07,3.19
	C270.3,486.68,272.11,489.26,272.11,489.52L272.11,489.52z M288.29,484.37l3.56,0.01v9.58h1.55v-9.58l3.57,0c0,0,0-0.38,0-1.32
	h-8.51h-0.17L288.29,484.37z M249.86,480.78h-27.83v0.6h28.43l0.01-0.6C250.46,480.78,250.46,480.78,249.86,480.78L249.86,480.78z
	 M335.97,481.38h28.66v-0.6c-2.93,0-28.66-0.04-28.66-0.04V481.38z M262.17,477.24"/>
</svg>
