<svg id="Слой_1" data-name="Слой 1" xmlns="http://www.w3.org/2000/svg" viewBox="0 0 42.35 47.09"><defs><style>.cls-1{fill-rule:evenodd;}</style></defs><path class="cls-1" d="M286.3,397.44v29.3a6,6,0,0,0,.57,2.23,4.83,4.83,0,0,0,.26.45l.28.43a5.34,5.34,0,0,0,.64.77,6,6,0,0,0,7,1.07,6.14,6.14,0,0,0,1.26-.87,4.43,4.43,0,0,0,.51-.55l.47-.59a2.25,2.25,0,0,0,.37-.7h.07a4.32,4.32,0,0,0,.82,1.27,5.66,5.66,0,0,0,1.11,1,5.93,5.93,0,0,0,3.12,1.09,6.85,6.85,0,0,0,1.92-.2,5,5,0,0,0,1.06-.4,6.37,6.37,0,0,0,.9-.55,5,5,0,0,0,1.12-1.07,6,6,0,0,0,1.2-2.45,6.24,6.24,0,0,0-.79-4.65l-2.49-4.89-.35-.71-1.44-2.83-.34-.68-1.79-3.53c-.13-.26-.24-.45-.36-.7l-2.49-4.93a4.43,4.43,0,0,1,6-5.75l.65.41a2.31,2.31,0,0,1,.29.24l.51.52a4.13,4.13,0,0,1,.61,1,4.75,4.75,0,0,1,.39,1.75h1.17a5.18,5.18,0,0,0-.5-2.21,5.52,5.52,0,0,0-7.41-2.76,5.82,5.82,0,0,0-2.17,1.83,2.85,2.85,0,0,0-.26.41,5.78,5.78,0,0,0-.65,3.93,7.75,7.75,0,0,0,.91,2.22c1.14,2.31,2.35,4.59,3.49,6.9l4.35,8.6c.07.14.1.23.16.37a20.12,20.12,0,0,1,1.28,2.91,6.37,6.37,0,0,1,.12,1.51,4.83,4.83,0,0,1-2.8,4.19,4.91,4.91,0,0,1-5.45-1,2.18,2.18,0,0,1-.25-.28l-.25-.29L299,429a5.49,5.49,0,0,1-.69-1.9,5.77,5.77,0,0,1-.09-1.5V406.69c0-.18,0-.37,0-.37l-.13-.24a1.74,1.74,0,0,1-.11-.18,5.36,5.36,0,0,1-.6-1.53,6.43,6.43,0,0,1-.14-.92l0,22.33a5.28,5.28,0,0,1-.43,2.63,4,4,0,0,1-.8,1.22,4.8,4.8,0,0,1-3.75,1.63,4.62,4.62,0,0,1-1.94-.47,5.17,5.17,0,0,1-1.41-1,4.33,4.33,0,0,1-.77-1,5.7,5.7,0,0,1-.5-1.32,7.28,7.28,0,0,1-.14-.81,7.42,7.42,0,0,1-.07-.85c0-.28,0-.5,0-.57V397.33h-1ZM287.82,440h.7c.28-1.22.83-2.84,1.13-4.12a1.79,1.79,0,0,1,.05-.19.74.74,0,0,0,0-.12c0,.2.1.39.16.6s.11.38.16.56l.88,3.27h.67l.34-1.26c.18-.66.37-1.33.55-2s.3-1.19.45-1.78h-.66c0,.33-.8,3.23-.95,4l-.07.28c-.54-2.2-.73-3-.81-3.22l-.14-.52a5.26,5.26,0,0,1-.15-.53h-.82c-.21.73-.42,1.47-.62,2.23s-.35,1.35-.51,2h-.06c0-.18-.05-.35-.09-.54s-.08-.37-.12-.54l-.48-2.07c-.05-.18-.1-.37-.14-.57s-.07-.35-.09-.52h-.71c.23.88.47,1.77.7,2.66S287.62,439.21,287.82,440Zm18.58-.6h-1.28v-3.84h1.35c1.85,0,1.68,2.82.89,3.53a.9.9,0,0,1-.26.17,1.78,1.78,0,0,1-.7.14Zm-1.95.6a11.46,11.46,0,0,0,3-.13,2.14,2.14,0,0,0,.69-.54,3.45,3.45,0,0,0,.5-2.09c0-.19,0-.37,0-.37s0-.18-.07-.34a1.94,1.94,0,0,0-2-1.58h-2.05Zm-4.94-2.38a2.41,2.41,0,0,1,.38-1.53,1.72,1.72,0,0,1,2.56-.08,2.58,2.58,0,0,1,0,2.92,1.67,1.67,0,0,1-2.5,0,1.86,1.86,0,0,1-.45-1.29Zm-.71-.07a2.41,2.41,0,0,0,2.23,2.52,2.33,2.33,0,0,0,1.93-.72c.93-.94,1-3.41-.6-4.21a2.43,2.43,0,0,0-3.22.9,3.29,3.29,0,0,0-.34,1.51Zm-4.73.11a2.54,2.54,0,0,1,.36-1.55,1.71,1.71,0,0,1,3,1.19,2.26,2.26,0,0,1-.42,1.61,1.7,1.7,0,0,1-3-1.25Zm-.71-.15a2.42,2.42,0,0,0,2.23,2.56,2.34,2.34,0,0,0,2-.73c1-1.1.86-3.44-.6-4.19a2.39,2.39,0,0,0-3.41,1.29,3.75,3.75,0,0,0-.17,1.07Zm8.58,6.8h.43v-2.64l.23.66c.1.29.65,2,.65,2h.43s.66-1.89.77-2.25c0-.13.14-.38.14-.38v2.63H305v-3.24h-.6l-.82,2.38-.12.37c-.09-.38-.53-1.61-.67-2.05-.08-.23-.23-.7-.23-.7h-.64Zm-3-3.13v3.14h2.41v-.4H299.4v-1.1h2v-.35h-2v-1h2v-.39h-2.41v.11Zm-5.72.67c0,.61.33.76.91.93.21.06.49.11.7.19.75.29.39,1-.37,1a.85.85,0,0,1-1-.75c-.35,0-.45-.06-.38.24a1.31,1.31,0,0,0,.25.5c.65.71,2.29.44,2.29-.56,0-1.31-2-.72-2-1.57,0-.6,1.47-.69,1.49.14h.42a.91.91,0,0,0-.71-.91C294.12,440.88,293.22,441.14,293.22,441.85Zm-6,0c0,.61.33.76.91.93.38.11,1.1.17,1.1.64,0,.64-1,.69-1.43.37a.76.76,0,0,1-.3-.55h-.39c0,1.56,2.55,1.41,2.55.18s-2-.72-2-1.57c0-.6,1.49-.69,1.49.14h.42a.88.88,0,0,0-.35-.74.92.92,0,0,0-.36-.17c-.72-.2-1.62.06-1.62.77Zm9.89-39.33h0a6.2,6.2,0,0,1,.38-1.57,5.87,5.87,0,0,1,.29-.67l.36-.64v-2.35h-1v.58C297.14,399.42,297.13,401,297.14,402.52ZM307.89,442m.09-.13s0-.05,0-.06l0-.07a1.3,1.3,0,0,1-.05-.14,1,1,0,0,0-.11-.18,1,1,0,0,0-.43-.31c-.44-.18-1.47-.09-1.67.52-.39,1.24,1.5,1.12,1.87,1.51.22.23.15.85-.7.85-.5,0-.9-.26-.91-.75h-.43c0,1.32,2,1.49,2.48.53a.85.85,0,0,0-.42-1.15c-.4-.19-1.94-.29-1.43-1,.25-.34,1.36-.41,1.42.37H308A1.16,1.16,0,0,0,308,441.87ZM291.17,443v1.32h.42V443a2.88,2.88,0,0,1,.3-.48c.22-.33.85-1.19,1-1.44h-.5l-.72,1.12c-.08.12-.27.37-.27.37s-.55-.92-.68-1.12l-.24-.37h-.53l.62.95a9.62,9.62,0,0,1,.62,1Zm4.81-1.53h1v2.85h.46v-2.85h1.06v-.39H296Zm-11.41-1.07H276.3v.18h8.44v-.18Zm25.57.18h8.51v-.18h-8.51Zm-21.92-1.23" transform="translate(-276.3 -397.29)"/></svg>